<svg width="64" height="64" viewBox="0 0 64 64" fill="none" xmlns="http://www.w3.org/2000/svg">
<path fill-rule="evenodd" clip-rule="evenodd" d="M32 2.66675C15.8 2.66675 2.66666 15.8001 2.66666 32.0001C2.66666 48.2001 15.8 61.3334 32 61.3334C48.2 61.3334 61.3333 48.2001 61.3333 32.0001C61.3333 15.8001 48.2 2.66675 32 2.66675ZM34.6667 42.6667C34.6667 43.374 34.3857 44.0523 33.8856 44.5524C33.3855 45.0525 32.7072 45.3334 32 45.3334C31.2927 45.3334 30.6145 45.0525 30.1144 44.5524C29.6143 44.0523 29.3333 43.374 29.3333 42.6667V34.6667H21.3333C20.6261 34.6667 19.9478 34.3858 19.4477 33.8857C18.9476 33.3856 18.6667 32.7073 18.6667 32.0001C18.6667 31.2928 18.9476 30.6146 19.4477 30.1145C19.9478 29.6144 20.6261 29.3334 21.3333 29.3334H29.3333V21.3334C29.3333 20.6262 29.6143 19.9479 30.1144 19.4478C30.6145 18.9477 31.2927 18.6667 32 18.6667C32.7072 18.6667 33.3855 18.9477 33.8856 19.4478C34.3857 19.9479 34.6667 20.6262 34.6667 21.3334V29.3334H42.6667C43.3739 29.3334 44.0522 29.6144 44.5523 30.1145C45.0524 30.6146 45.3333 31.2928 45.3333 32.0001C45.3333 32.7073 45.0524 33.3856 44.5523 33.8857C44.0522 34.3858 43.3739 34.6667 42.6667 34.6667H34.6667V42.6667Z" fill="url(#paint0_linear_1_97)"/>
<defs>
<linearGradient id="paint0_linear_1_97" x1="2.66666" y1="32.0001" x2="61.3333" y2="32.0001" gradientUnits="userSpaceOnUse">
<stop stop-color="#2AF598"/>
<stop offset="1" stop-color="#009EFD"/>
</linearGradient>
</defs>
</svg>
